<svg viewBox="0 0 96 96" height="96" width="96" xmlns="http://www.w3.org/2000/svg"><g transform="matrix(4,0,0,4,0,0)"><path d="M21,10.063c0,6.227-7.122,12.059-8.695,13.27a.5.5,0,0,1-.61,0C10.121,22.121,3,16.29,3,10.063c0-5.246,3.753-9.5,9-9.5S21,4.817,21,10.063Z" fill="none" stroke="#ffffff" stroke-linecap="round" stroke-linejoin="round"></path><path d="M12,14.563v-6a1,1,0,0,0-1-1H10" fill="none" stroke="#ffffff" stroke-linecap="round" stroke-linejoin="round"></path><path d="M10 14.563L14 14.563" fill="none" stroke="#ffffff" stroke-linecap="round" stroke-linejoin="round"></path><path d="M12,5.063a.25.25,0,0,1,.25.25" fill="none" stroke="#ffffff" stroke-linecap="round" stroke-linejoin="round"></path><path d="M11.75,5.313a.25.25,0,0,1,.25-.25" fill="none" stroke="#ffffff" stroke-linecap="round" stroke-linejoin="round"></path><path d="M12,5.563a.25.25,0,0,1-.25-.25" fill="none" stroke="#ffffff" stroke-linecap="round" stroke-linejoin="round"></path><path d="M12.25,5.313a.25.25,0,0,1-.25.25" fill="none" stroke="#ffffff" stroke-linecap="round" stroke-linejoin="round"></path></g></svg>