# Blender v2.83.13 OBJ File: ''
# www.blender.org
mtllib Handle4_2.mtl
o pCube3_Mesh.036
v -2.777003 2.038553 0.053162
v -2.777003 2.038553 0.027464
v -2.777003 -1.474419 0.027464
v -2.777003 -1.474419 0.053162
v -2.042774 2.117638 0.189793
v -2.042774 -1.553504 0.189793
v -2.042774 -1.553504 0.164095
v -2.042774 2.117638 0.164095
v -2.077375 2.117638 0.164095
v -2.077375 2.117638 0.189793
v -2.042774 2.117638 0.007342
v -2.042774 -1.553504 0.007342
v -2.077375 -1.553504 0.007342
v -2.077375 2.117638 0.007342
v -2.077375 -1.553504 0.189793
v -2.077375 -1.553504 0.164095
v -2.618816 2.117638 0.148808
v -2.599504 2.117638 0.159483
v -2.599504 2.117638 0.133785
v -2.618816 2.117638 0.123110
v -2.579422 2.117638 0.168627
v -2.579422 2.117638 0.142929
v -2.558691 2.117638 0.176185
v -2.558691 2.117638 0.150487
v -2.537435 2.117638 0.182113
v -2.537435 2.117638 0.156414
v -2.515784 2.117638 0.186370
v -2.515784 2.117638 0.160672
v -2.492697 2.117638 0.162957
v -2.487265 2.117638 0.163495
v -2.487265 -1.553504 0.163495
v -2.492697 -1.553504 0.162957
v -2.697917 -1.553504 0.100980
v -2.697917 -1.553504 0.075282
v -2.618815 -1.553504 0.123110
v -2.618815 -1.553504 0.148808
v -2.697917 2.117638 0.075282
v -2.697917 2.117638 0.100980
v -2.473718 2.117638 0.163514
v -2.487265 2.117638 0.189192
v -2.473718 2.117638 0.189212
v -2.473718 -1.553504 0.163514
v -2.473718 -1.553504 0.189212
v -2.487265 -1.553504 0.189192
v -2.492697 -1.553504 0.188655
v -2.515784 -1.553504 0.160672
v -2.537435 -1.553504 0.156414
v -2.558690 -1.553504 0.150487
v -2.579422 -1.553504 0.142929
v -2.599504 -1.553504 0.133785
v -2.492697 2.117638 0.188655
v -2.515784 -1.553504 0.186370
v -2.537435 -1.553504 0.182112
v -2.558690 -1.553504 0.176185
v -2.579422 -1.553504 0.168627
v -2.599504 -1.553504 0.159483
v -2.722356 2.113768 0.060506
v -2.722356 2.113768 0.086204
v -2.744403 2.102535 0.047175
v -2.744403 2.102535 0.072873
v -2.761899 2.085038 0.036597
v -2.761899 2.085038 0.062295
v -2.773132 2.062991 0.029805
v -2.773132 2.062991 0.055503
v -2.773132 -1.498857 0.029805
v -2.773132 -1.498857 0.055503
v -2.761899 -1.520904 0.036597
v -2.761899 -1.520904 0.062295
v -2.744402 -1.538400 0.047175
v -2.744402 -1.538400 0.072873
v -2.722356 -1.549634 0.060506
v -2.722356 -1.549634 0.086204
v 2.773208 -1.474420 0.053162
v 2.773208 -1.474420 0.027464
v 2.773208 2.038552 0.027464
v 2.773208 2.038552 0.053162
v 2.038979 -1.553505 0.189793
v 2.038980 2.117638 0.189793
v 2.038980 2.117638 0.164095
v 2.038979 -1.553505 0.164095
v 2.073580 -1.553505 0.164095
v 2.073580 -1.553505 0.189793
v 2.038979 -1.553505 0.007342
v 2.038980 2.117638 0.007342
v 2.073581 2.117638 0.007342
v 2.073580 -1.553505 0.007342
v 2.073581 2.117638 0.189793
v 2.073581 2.117638 0.164095
v 2.615021 -1.553505 0.148808
v 2.595709 -1.553505 0.159483
v 2.595709 -1.553505 0.133785
v 2.615021 -1.553505 0.123110
v 2.575627 -1.553505 0.168627
v 2.575627 -1.553505 0.142929
v 2.554896 -1.553505 0.176185
v 2.554896 -1.553505 0.150487
v 2.533640 -1.553505 0.182113
v 2.533640 -1.553505 0.156414
v 2.511989 -1.553505 0.186370
v 2.511989 -1.553505 0.160672
v 2.488902 -1.553505 0.162957
v 2.483470 -1.553505 0.163495
v 2.483470 2.117638 0.163495
v 2.488902 2.117638 0.162957
v 2.694123 2.117638 0.100980
v 2.694123 2.117638 0.075282
v 2.615021 2.117638 0.123110
v 2.615021 2.117638 0.148808
v 2.694122 -1.553505 0.075282
v 2.694122 -1.553505 0.100980
v 2.469923 -1.553505 0.163514
v 2.483470 -1.553505 0.189192
v 2.469923 -1.553505 0.189212
v 2.469923 2.117638 0.163514
v 2.469923 2.117638 0.189212
v 2.483470 2.117638 0.189192
v 2.488902 2.117638 0.188655
v 2.511989 2.117638 0.160672
v 2.533640 2.117638 0.156414
v 2.554895 2.117638 0.150487
v 2.575628 2.117638 0.142929
v 2.595710 2.117638 0.133785
v 2.488902 -1.553505 0.188655
v 2.511989 2.117638 0.186370
v 2.533640 2.117638 0.182112
v 2.554895 2.117638 0.176185
v 2.575628 2.117638 0.168627
v 2.595710 2.117638 0.159483
v 2.718561 -1.549635 0.060506
v 2.718561 -1.549635 0.086204
v 2.740608 -1.538402 0.047175
v 2.740608 -1.538402 0.072873
v 2.758104 -1.520905 0.036597
v 2.758104 -1.520905 0.062295
v 2.769337 -1.498857 0.029805
v 2.769337 -1.498857 0.055503
v 2.769337 2.062991 0.029805
v 2.769337 2.062991 0.055503
v 2.758105 2.085037 0.036597
v 2.758105 2.085037 0.062295
v 2.740608 2.102533 0.047175
v 2.740608 2.102533 0.072873
v 2.718561 2.113768 0.060506
v 2.718561 2.113768 0.086204
vt 1.041109 1.152642
vt 1.023594 1.152613
vt 1.030582 -0.184599
vt 1.048097 -0.184570
vt 0.792403 1.201746
vt 0.792403 -0.201747
vt 0.809918 -0.201747
vt 0.809918 1.201746
vt 1.161249 0.341690
vt 1.161249 0.328474
vt 1.178764 0.328474
vt 1.178764 0.341690
vt 1.201747 -0.201747
vt 1.201746 1.201746
vt 1.178764 1.201746
vt 1.178764 -0.201747
vt 1.054411 0.060244
vt 1.071926 0.060244
vt 1.071926 0.073460
vt 1.054411 0.073460
vt 0.283837 1.201747
vt 0.283837 -0.201747
vt 0.306819 -0.201747
vt 0.306819 1.201747
vt 0.916756 -0.201747
vt 0.916756 1.201746
vt 1.178764 0.060244
vt 1.178764 0.073460
vt 0.916756 1.195678
vt 0.916756 -0.201747
vt 1.023594 -0.201747
vt 1.023594 1.195678
vt 1.054411 0.341690
vt 1.054411 0.328474
vt 1.150830 0.121679
vt 1.158106 0.129055
vt 1.140591 0.129055
vt 1.133315 0.121679
vt 1.164338 0.136725
vt 1.146823 0.136725
vt 1.169490 0.144643
vt 1.151975 0.144643
vt 1.173529 0.152761
vt 1.156014 0.152761
vt 1.176432 0.161031
vt 1.158917 0.161031
vt 0.582856 1.201746
vt 0.579165 1.201746
vt 0.579165 -0.201747
vt 0.582855 -0.201747
vt 1.114943 -0.176762
vt 1.132458 -0.176762
vt 1.099860 -0.146551
vt 1.082345 -0.146551
vt 1.100717 0.091468
vt 1.118232 0.091468
vt 1.160854 0.177097
vt 1.160840 0.171923
vt 1.178355 0.171923
vt 1.178369 0.177097
vt 0.570164 1.201746
vt 0.570164 -0.201747
vt 1.054807 -0.091133
vt 1.072322 -0.091133
vt 0.020492 1.201747
vt 0.020492 -0.201747
vt 1.072702 -0.098382
vt 1.072335 -0.096307
vt 1.054820 -0.096307
vt 1.055187 -0.098382
vt 0.598539 1.201746
vt 0.598539 -0.201747
vt 0.613571 1.201746
vt 0.613571 -0.201747
vt 0.628595 1.201746
vt 0.628595 -0.201747
vt 0.643520 1.201746
vt 0.643520 -0.201747
vt 0.672715 1.201746
vt 0.658256 1.201746
vt 0.658256 -0.201747
vt 0.672715 -0.201747
vt 0.007801 1.201747
vt 0.007801 -0.201747
vt 0.011491 -0.201747
vt 0.011491 1.201747
vt 1.074259 -0.107199
vt 1.056744 -0.107199
vt 1.077161 -0.115469
vt 1.059646 -0.115469
vt 1.081200 -0.123587
vt 1.063686 -0.123587
vt 1.086352 -0.131505
vt 1.068837 -0.131505
vt 1.092584 -0.139175
vt 1.075069 -0.139175
vt 1.177989 0.169848
vt 1.160474 0.169848
vt -0.007883 1.201747
vt -0.007883 -0.201747
vt -0.022915 1.201747
vt -0.022915 -0.201747
vt -0.037939 1.201747
vt -0.037938 -0.201747
vt -0.052864 1.201747
vt -0.052864 -0.201747
vt -0.067600 1.201747
vt -0.067600 -0.201747
vt -0.082059 1.201747
vt -0.082058 -0.201747
vt 1.090646 0.082069
vt 1.108161 0.082069
vt 1.081561 0.073460
vt 1.099076 0.073460
vt 1.036896 1.178147
vt 1.029724 1.170854
vt 1.047238 1.170883
vt 1.054411 1.178176
vt 1.025140 1.162055
vt 1.042655 1.162084
vt 1.032225 -0.193761
vt 1.049740 -0.193732
vt 1.036896 -0.201747
vt 1.054411 -0.201718
vt 1.158825 -0.201747
vt 1.151615 -0.194770
vt 1.134100 -0.194770
vt 1.141310 -0.201747
vt 1.142529 -0.186161
vt 1.125014 -0.186161
vt 0.792403 1.171511
vt 0.789474 1.180854
vt 0.780975 1.189283
vt 0.767737 1.195972
vt 0.751056 1.200266
vt 0.732565 1.201746
vt 0.732565 -0.201747
vt 0.751056 -0.200267
vt 0.767737 -0.195972
vt 0.780975 -0.189283
vt 0.789474 -0.180855
vt 0.792403 -0.171512
vt -0.141908 -0.201747
vt -0.141909 1.201747
vt -0.160400 1.200267
vt -0.177081 1.195972
vt -0.190319 1.189283
vt -0.198818 1.180855
vt -0.201747 1.171512
vt -0.201746 -0.171512
vt -0.198818 -0.180855
vt -0.190318 -0.189283
vt -0.177080 -0.195972
vt -0.160399 -0.200267
vt 0.306820 1.201746
vt 0.306819 -0.201747
vt 1.041109 1.152642
vt 1.023594 1.152613
vt 1.030582 -0.184599
vt 1.048097 -0.184570
vt 0.792403 1.201746
vt 0.792403 -0.201747
vt 0.809918 -0.201747
vt 0.809918 1.201746
vt 1.161249 0.341690
vt 1.161249 0.328474
vt 1.178764 0.328474
vt 1.178764 0.341690
vt 1.201747 -0.201747
vt 1.201746 1.201746
vt 1.178764 1.201746
vt 1.178764 -0.201747
vt 1.054411 0.060244
vt 1.071926 0.060244
vt 1.071926 0.073460
vt 1.054411 0.073460
vt 0.283837 1.201747
vt 0.283837 -0.201747
vt 0.306819 -0.201747
vt 0.306819 1.201747
vt 0.916756 -0.201747
vt 0.916756 1.201746
vt 1.178764 0.060244
vt 1.178764 0.073460
vt 0.916756 1.195678
vt 0.916756 -0.201747
vt 1.023594 -0.201747
vt 1.023594 1.195678
vt 1.054411 0.341690
vt 1.054411 0.328474
vt 1.150830 0.121679
vt 1.158106 0.129055
vt 1.140591 0.129055
vt 1.133315 0.121679
vt 1.164338 0.136725
vt 1.146823 0.136725
vt 1.169490 0.144643
vt 1.151975 0.144643
vt 1.173529 0.152761
vt 1.156014 0.152761
vt 1.176432 0.161031
vt 1.158917 0.161031
vt 0.582856 1.201746
vt 0.579165 1.201746
vt 0.579165 -0.201747
vt 0.582855 -0.201747
vt 1.114943 -0.176762
vt 1.132458 -0.176762
vt 1.099860 -0.146551
vt 1.082345 -0.146551
vt 1.100717 0.091468
vt 1.118232 0.091468
vt 1.160854 0.177097
vt 1.160840 0.171923
vt 1.178355 0.171923
vt 1.178369 0.177097
vt 0.570164 1.201746
vt 0.570164 -0.201747
vt 1.054807 -0.091133
vt 1.072322 -0.091133
vt 0.020492 1.201747
vt 0.020492 -0.201747
vt 1.072702 -0.098382
vt 1.072335 -0.096307
vt 1.054820 -0.096307
vt 1.055187 -0.098382
vt 0.598539 1.201746
vt 0.598539 -0.201747
vt 0.613571 1.201746
vt 0.613571 -0.201747
vt 0.628595 1.201746
vt 0.628595 -0.201747
vt 0.643520 1.201746
vt 0.643520 -0.201747
vt 0.672715 1.201746
vt 0.658256 1.201746
vt 0.658256 -0.201747
vt 0.672715 -0.201747
vt 0.007801 1.201747
vt 0.007801 -0.201747
vt 0.011491 -0.201747
vt 0.011491 1.201747
vt 1.074259 -0.107199
vt 1.056744 -0.107199
vt 1.077161 -0.115469
vt 1.059646 -0.115469
vt 1.081200 -0.123587
vt 1.063686 -0.123587
vt 1.086352 -0.131505
vt 1.068837 -0.131505
vt 1.092584 -0.139175
vt 1.075069 -0.139175
vt 1.177989 0.169848
vt 1.160474 0.169848
vt -0.007883 1.201747
vt -0.007883 -0.201747
vt -0.022915 1.201747
vt -0.022915 -0.201747
vt -0.037939 1.201747
vt -0.037938 -0.201747
vt -0.052864 1.201747
vt -0.052864 -0.201747
vt -0.067600 1.201747
vt -0.067600 -0.201747
vt -0.082059 1.201747
vt -0.082058 -0.201747
vt 1.090646 0.082069
vt 1.108161 0.082069
vt 1.081561 0.073460
vt 1.099076 0.073460
vt 1.036896 1.178147
vt 1.029724 1.170854
vt 1.047238 1.170883
vt 1.054411 1.178176
vt 1.025140 1.162055
vt 1.042655 1.162084
vt 1.032225 -0.193761
vt 1.049740 -0.193732
vt 1.036896 -0.201747
vt 1.054411 -0.201718
vt 1.158825 -0.201747
vt 1.151615 -0.194770
vt 1.134100 -0.194770
vt 1.141310 -0.201747
vt 1.142529 -0.186161
vt 1.125014 -0.186161
vt 0.792403 1.171511
vt 0.789474 1.180854
vt 0.780975 1.189283
vt 0.767737 1.195972
vt 0.751056 1.200266
vt 0.732565 1.201746
vt 0.732565 -0.201747
vt 0.751056 -0.200267
vt 0.767737 -0.195972
vt 0.780975 -0.189283
vt 0.789474 -0.180855
vt 0.792403 -0.171512
vt -0.141908 -0.201747
vt -0.141909 1.201747
vt -0.160400 1.200267
vt -0.177081 1.195972
vt -0.190319 1.189283
vt -0.198818 1.180855
vt -0.201747 1.171512
vt -0.201746 -0.171512
vt -0.198818 -0.180855
vt -0.190318 -0.189283
vt -0.177080 -0.195972
vt -0.160399 -0.200267
vt 0.306820 1.201746
vt 0.306819 -0.201747
vn -0.9226 -0.3857 -0.0000
vn -0.9994 -0.0341 -0.0000
vn -0.9994 0.0341 0.0000
vn -0.9226 0.3857 0.0000
vn 1.0000 -0.0000 0.0000
vn 0.0000 1.0000 0.0000
vn 0.0000 0.0000 -1.0000
vn 0.0000 -1.0000 0.0000
vn -0.0007 -0.0000 1.0000
vn 0.0000 -0.0000 1.0000
vn -1.0000 0.0000 0.0000
vn 0.1959 0.0000 -0.9806
vn -0.3329 0.0001 -0.9430
vn -0.3329 0.0000 -0.9430
vn 0.0893 0.4241 -0.9012
vn -0.0005 -1.0000 -0.0011
vn -0.0005 1.0000 -0.0011
vn -0.4228 0.0001 -0.9062
vn 0.0014 0.0000 -1.0000
vn 0.0013 0.4241 -0.9056
vn 0.0013 -0.4241 -0.9056
vn -0.0015 -0.0000 1.0000
vn 0.2996 -0.0000 0.9541
vn 0.0980 -0.0984 -0.9903
vn 0.1122 0.0000 -0.9937
vn 0.1971 0.0000 -0.9804
vn 0.1930 -0.0138 -0.9811
vn 0.1930 0.0138 -0.9811
vn 0.2702 0.0000 -0.9628
vn 0.2686 -0.0041 -0.9632
vn 0.2686 0.0041 -0.9632
vn 0.3431 0.0000 -0.9393
vn 0.3425 -0.0017 -0.9395
vn 0.3425 0.0017 -0.9395
vn 0.4857 0.0000 -0.8741
vn 0.4838 -0.0006 -0.8752
vn 0.4838 0.0006 -0.8752
vn 0.4148 0.0000 -0.9099
vn 0.4144 -0.0007 -0.9101
vn 0.4144 0.0007 -0.9101
vn 0.2056 -0.0000 0.9786
vn -0.0981 0.0815 0.9918
vn -0.0938 0.3010 0.9490
vn -0.0939 -0.3010 0.9490
vn -0.0985 -0.0132 0.9951
vn -0.1793 -0.0000 0.9838
vn -0.2059 -0.0000 0.9786
vn -0.1930 -0.0040 0.9812
vn -0.1930 0.0040 0.9812
vn -0.2725 -0.0000 0.9622
vn -0.2686 -0.0017 0.9632
vn -0.2686 0.0017 0.9633
vn -0.3442 -0.0000 0.9389
vn -0.3425 -0.0009 0.9395
vn -0.3425 0.0009 0.9395
vn -0.4150 -0.0000 0.9098
vn -0.4144 -0.0005 0.9101
vn -0.4144 0.0005 0.9101
vn -0.4843 -0.0000 0.8749
vn -0.4838 -0.0023 0.8752
vn -0.4838 0.0023 0.8752
vn -0.1554 0.9878 -0.0005
vn -0.1564 0.9877 0.0000
vn -0.4540 0.8910 0.0000
vn -0.7071 0.7071 0.0000
vn -0.7076 0.7066 -0.0013
vn -0.7064 0.7078 -0.0006
vn -0.8904 0.4551 -0.0008
vn -0.8931 0.4499 -0.0077
vn -0.8884 0.4591 -0.0040
vn -0.8913 0.4534 -0.0009
vn -0.9865 0.1636 -0.0053
vn -0.9871 0.1564 0.0341
vn -0.9113 0.1443 -0.3857
vn -0.9884 0.1520 -0.0053
vn -0.9871 -0.1563 0.0341
vn -0.9865 -0.1637 -0.0053
vn -0.9884 -0.1520 -0.0053
vn -0.9113 -0.1443 -0.3857
vn -0.8931 -0.4498 -0.0078
vn -0.8904 -0.4551 -0.0008
vn -0.8913 -0.4534 -0.0009
vn -0.8884 -0.4591 -0.0040
vn -0.7076 -0.7066 -0.0013
vn -0.7071 -0.7071 0.0000
vn -0.7066 -0.7076 -0.0004
vn -0.4540 -0.8910 0.0000
vn -0.1564 -0.9877 0.0000
vn -0.1554 -0.9878 -0.0005
vn 0.5174 0.0000 -0.8557
vn 0.5174 -0.0023 -0.8557
vn 0.5174 0.0023 -0.8557
vn -0.5174 -0.0000 0.8557
vn -0.5193 -0.0000 0.8546
vn -0.0014 0.3010 0.9536
vn 0.0015 0.0000 -1.0000
vn 0.9226 0.3857 -0.0000
vn 0.9994 0.0341 -0.0000
vn 0.9994 -0.0341 0.0000
vn 0.9226 -0.3857 0.0000
vn 0.0007 0.0000 1.0000
vn -0.1959 -0.0000 -0.9806
vn 0.3329 -0.0001 -0.9430
vn 0.3329 -0.0000 -0.9430
vn -0.0893 -0.4241 -0.9012
vn 0.0005 1.0000 -0.0011
vn 0.0005 -1.0000 -0.0011
vn 0.4228 -0.0001 -0.9062
vn -0.0014 -0.0000 -1.0000
vn -0.0013 -0.4241 -0.9056
vn -0.0013 0.4241 -0.9056
vn 0.0015 0.0000 1.0000
vn -0.2996 0.0000 0.9541
vn -0.0980 0.0984 -0.9903
vn -0.1122 -0.0000 -0.9937
vn -0.1971 -0.0000 -0.9804
vn -0.1930 0.0138 -0.9811
vn -0.1930 -0.0138 -0.9811
vn -0.2702 -0.0000 -0.9628
vn -0.2686 0.0041 -0.9632
vn -0.2686 -0.0041 -0.9632
vn -0.3431 -0.0000 -0.9393
vn -0.3425 0.0017 -0.9395
vn -0.3425 -0.0017 -0.9395
vn -0.4857 -0.0000 -0.8741
vn -0.4838 0.0006 -0.8752
vn -0.4838 -0.0006 -0.8752
vn -0.4148 -0.0000 -0.9099
vn -0.4144 0.0007 -0.9101
vn -0.4144 -0.0007 -0.9101
vn -0.2056 0.0000 0.9786
vn 0.0981 -0.0815 0.9918
vn 0.0938 -0.3010 0.9490
vn 0.0939 0.3010 0.9490
vn 0.0985 0.0132 0.9951
vn 0.1793 0.0000 0.9838
vn 0.2059 0.0000 0.9786
vn 0.1930 0.0040 0.9812
vn 0.1930 -0.0040 0.9812
vn 0.2725 0.0000 0.9622
vn 0.2686 0.0017 0.9632
vn 0.2686 -0.0017 0.9633
vn 0.3442 0.0000 0.9389
vn 0.3425 0.0009 0.9395
vn 0.3425 -0.0009 0.9395
vn 0.4150 0.0000 0.9098
vn 0.4144 0.0005 0.9101
vn 0.4144 -0.0005 0.9101
vn 0.4843 0.0000 0.8749
vn 0.4838 0.0023 0.8752
vn 0.4838 -0.0023 0.8752
vn 0.1554 -0.9878 -0.0005
vn 0.1564 -0.9877 0.0000
vn 0.4540 -0.8910 0.0000
vn 0.7071 -0.7071 0.0000
vn 0.7076 -0.7066 -0.0013
vn 0.7064 -0.7078 -0.0006
vn 0.8904 -0.4551 -0.0008
vn 0.8931 -0.4499 -0.0077
vn 0.8884 -0.4591 -0.0040
vn 0.8913 -0.4534 -0.0009
vn 0.9865 -0.1636 -0.0053
vn 0.9871 -0.1564 0.0341
vn 0.9113 -0.1443 -0.3857
vn 0.9884 -0.1520 -0.0053
vn 0.9871 0.1563 0.0341
vn 0.9865 0.1637 -0.0053
vn 0.9884 0.1520 -0.0053
vn 0.9113 0.1443 -0.3857
vn 0.8931 0.4498 -0.0078
vn 0.8904 0.4551 -0.0008
vn 0.8913 0.4534 -0.0009
vn 0.8884 0.4591 -0.0040
vn 0.7076 0.7066 -0.0013
vn 0.7071 0.7071 0.0000
vn 0.7066 0.7077 -0.0004
vn 0.4540 0.8910 0.0000
vn 0.1564 0.9877 0.0000
vn 0.1554 0.9878 -0.0005
vn -0.5174 -0.0000 -0.8557
vn -0.5174 0.0023 -0.8557
vn -0.5174 -0.0023 -0.8557
vn 0.5174 0.0000 0.8557
vn 0.5193 0.0000 0.8546
vn 0.0014 -0.3010 0.9536
vn -0.0015 -0.0000 -1.0000
usemtl Metal
s 1
f 1/1/1 2/2/2 3/3/3 4/4/4
f 5/5/5 6/6/5 7/7/5 8/8/5
f 8/9/6 9/10/6 10/11/6 5/12/6
f 11/13/7 12/14/7 13/15/7 14/16/7
f 15/17/8 16/18/8 7/19/8 6/20/8
f 10/21/9 15/22/9 6/23/10 5/24/10
f 8/8/5 7/7/5 12/25/5 11/26/5
f 7/19/8 16/18/8 13/27/8 12/28/8
f 16/29/11 9/30/11 14/31/11 13/32/11
f 9/10/6 8/9/6 11/33/6 14/34/6
f 17/35/6 18/36/6 19/37/6 20/38/6
f 18/36/6 21/39/6 22/40/6 19/37/6
f 21/39/6 23/41/6 24/42/6 22/40/6
f 23/41/6 25/43/6 26/44/6 24/42/6
f 25/43/6 27/45/6 28/46/6 26/44/6
f 29/47/12 30/48/13 31/49/14 32/50/15
f 33/51/8 34/52/16 35/53/8 36/54/8
f 20/38/6 37/55/17 38/56/6 17/35/6
f 39/57/6 30/58/6 40/59/6 41/60/6
f 39/61/18 42/62/19 31/49/20 30/48/21
f 43/63/8 42/64/8 16/18/8 15/17/8
f 41/65/22 43/66/23 15/22/9 10/21/9
f 32/67/8 31/68/8 44/69/8 45/70/8
f 28/71/12 29/47/24 32/50/14 46/72/25
f 26/73/26 28/71/27 46/72/28 47/74/26
f 24/75/29 26/73/30 47/74/31 48/76/29
f 22/77/32 24/75/33 48/76/34 49/78/32
f 20/79/35 19/80/36 50/81/37 35/82/35
f 19/80/38 22/77/39 49/78/40 50/81/38
f 51/83/41 45/84/42 44/85/43 40/86/44
f 46/87/8 32/67/8 45/70/8 52/88/8
f 47/89/8 46/87/8 52/88/8 53/90/8
f 48/91/8 47/89/8 53/90/8 54/92/8
f 49/93/8 48/91/8 54/92/8 55/94/8
f 35/53/8 50/95/8 56/96/8 36/54/8
f 50/95/8 49/93/8 55/94/8 56/96/8
f 27/45/6 51/97/6 29/98/6 28/46/6
f 27/99/45 52/100/42 45/84/46 51/83/44
f 27/99/47 25/101/48 53/102/49 52/100/47
f 25/101/50 23/103/51 54/104/52 53/102/50
f 23/103/53 21/105/54 55/106/55 54/104/53
f 21/105/56 18/107/57 56/108/58 55/106/56
f 18/107/59 17/109/60 36/110/61 56/108/59
f 37/55/62 57/111/63 58/112/63 38/56/63
f 57/111/64 59/113/64 60/114/64 58/112/64
f 59/115/65 61/116/66 62/117/67 60/118/65
f 61/116/68 63/119/69 64/120/70 62/117/71
f 63/119/72 2/2/73 1/1/74 64/120/75
f 3/3/76 65/121/77 66/122/78 4/4/79
f 65/121/80 67/123/81 68/124/82 66/122/83
f 67/125/84 69/126/85 70/127/85 68/128/86
f 69/126/87 71/129/87 72/130/87 70/127/87
f 71/129/88 34/52/89 33/51/88 72/130/88
f 2/131/90 63/132/90 61/133/90 59/134/90 57/135/90 37/136/90 20/79/91 35/82/92 34/137/90 71/138/90 69/139/90 67/140/90 65/141/90 3/142/90
f 33/143/93 36/110/94 17/109/94 38/144/93 58/145/93 60/146/93 62/147/93 64/148/93 1/149/93 4/150/93 66/151/93 68/152/93 70/153/93 72/154/93
f 51/97/6 40/59/6 30/58/6 29/98/6
f 40/86/23 44/85/23 43/66/95 41/65/22
f 44/69/8 31/68/8 42/64/8 43/63/8
f 9/155/96 16/156/96 42/62/96 39/61/21
f 9/10/6 39/57/6 41/60/6 10/11/6
f 73/157/97 74/158/98 75/159/99 76/160/100
f 77/161/11 78/162/11 79/163/11 80/164/11
f 80/165/8 81/166/8 82/167/8 77/168/8
f 83/169/7 84/170/7 85/171/7 86/172/7
f 87/173/6 88/174/6 79/175/6 78/176/6
f 82/177/101 87/178/101 78/179/10 77/180/10
f 80/164/11 79/163/11 84/181/11 83/182/11
f 79/175/6 88/174/6 85/183/6 84/184/6
f 88/185/5 81/186/5 86/187/5 85/188/5
f 81/166/8 80/165/8 83/189/8 86/190/8
f 89/191/8 90/192/8 91/193/8 92/194/8
f 90/192/8 93/195/8 94/196/8 91/193/8
f 93/195/8 95/197/8 96/198/8 94/196/8
f 95/197/8 97/199/8 98/200/8 96/198/8
f 97/199/8 99/201/8 100/202/8 98/200/8
f 101/203/102 102/204/103 103/205/104 104/206/105
f 105/207/6 106/208/106 107/209/6 108/210/6
f 92/194/8 109/211/107 110/212/8 89/191/8
f 111/213/8 102/214/8 112/215/8 113/216/8
f 111/217/108 114/218/109 103/205/110 102/204/111
f 115/219/6 114/220/6 88/174/6 87/173/6
f 113/221/112 115/222/113 87/178/101 82/177/101
f 104/223/6 103/224/6 116/225/6 117/226/6
f 100/227/102 101/203/114 104/206/104 118/228/115
f 98/229/116 100/227/117 118/228/118 119/230/116
f 96/231/119 98/229/120 119/230/121 120/232/119
f 94/233/122 96/231/123 120/232/124 121/234/122
f 92/235/125 91/236/126 122/237/127 107/238/125
f 91/236/128 94/233/129 121/234/130 122/237/128
f 123/239/131 117/240/132 116/241/133 112/242/134
f 118/243/6 104/223/6 117/226/6 124/244/6
f 119/245/6 118/243/6 124/244/6 125/246/6
f 120/247/6 119/245/6 125/246/6 126/248/6
f 121/249/6 120/247/6 126/248/6 127/250/6
f 107/209/6 122/251/6 128/252/6 108/210/6
f 122/251/6 121/249/6 127/250/6 128/252/6
f 99/201/8 123/253/8 101/254/8 100/202/8
f 99/255/135 124/256/132 117/240/136 123/239/134
f 99/255/137 97/257/138 125/258/139 124/256/137
f 97/257/140 95/259/141 126/260/142 125/258/140
f 95/259/143 93/261/144 127/262/145 126/260/143
f 93/261/146 90/263/147 128/264/148 127/262/146
f 90/263/149 89/265/150 108/266/151 128/264/149
f 109/211/152 129/267/153 130/268/153 110/212/153
f 129/267/154 131/269/154 132/270/154 130/268/154
f 131/271/155 133/272/156 134/273/157 132/274/155
f 133/272/158 135/275/159 136/276/160 134/273/161
f 135/275/162 74/158/163 73/157/164 136/276/165
f 75/159/166 137/277/167 138/278/168 76/160/169
f 137/277/170 139/279/171 140/280/172 138/278/173
f 139/281/174 141/282/175 142/283/175 140/284/176
f 141/282/177 143/285/177 144/286/177 142/283/177
f 143/285/178 106/208/179 105/207/178 144/286/178
f 74/287/180 135/288/180 133/289/180 131/290/180 129/291/180 109/292/180 92/235/181 107/238/182 106/293/180 143/294/180 141/295/180 139/296/180 137/297/180 75/298/180
f 105/299/183 108/266/184 89/265/184 110/300/183 130/301/183 132/302/183 134/303/183 136/304/183 73/305/183 76/306/183 138/307/183 140/308/183 142/309/183 144/310/183
f 123/253/8 112/215/8 102/214/8 101/254/8
f 112/242/113 116/241/113 115/222/185 113/221/112
f 116/225/6 103/224/6 114/220/6 115/219/6
f 81/311/186 88/312/186 114/218/186 111/217/111
f 81/166/8 111/213/8 113/216/8 82/167/8
