# Blender v2.83.13 OBJ File: ''
# www.blender.org
mtllib Handle4.mtl
o pCube1_Mesh.030
v 0.365954 2.117638 1.084217
v 0.365954 -1.553504 1.084217
v 0.365954 2.117638 1.058519
v 0.365954 -1.553504 1.058519
v 0.331353 2.117638 1.084217
v 0.331353 2.117638 1.058519
v 0.331353 -1.553504 1.058519
v 0.331353 -1.553504 1.084217
v 0.365954 2.117638 0.901766
v 0.365954 -1.553504 0.901766
v 0.331353 -1.553504 0.901766
v 0.331353 2.117638 0.901766
v -0.078537 2.117638 1.083616
v -0.083969 -1.553504 1.083079
v -0.107056 2.117638 1.080794
v -0.128707 2.117638 1.076536
v -0.149963 2.117638 1.070609
v -0.170694 2.117638 1.063051
v -0.190776 2.117638 1.053907
v -0.210088 2.117638 1.043232
v -0.210088 2.117638 1.017534
v -0.190776 2.117638 1.028209
v -0.170694 2.117638 1.037353
v -0.149963 2.117638 1.044911
v -0.128707 2.117638 1.050838
v -0.107056 2.117638 1.055096
v -0.083969 -1.553504 1.057381
v -0.078537 2.117638 1.057919
v -0.210087 -1.553504 1.017534
v -0.190776 -1.553504 1.028209
v -0.170694 -1.553504 1.037353
v -0.149962 -1.553504 1.044911
v -0.128707 -1.553504 1.050838
v -0.107056 -1.553504 1.055096
v -0.083969 2.117638 1.057381
v -0.078537 -1.553504 1.057919
v -0.210087 -1.553504 1.043232
v -0.190776 -1.553504 1.053907
v -0.170694 -1.553504 1.063051
v -0.149962 -1.553504 1.070609
v -0.128707 -1.553504 1.076536
v -0.107056 -1.553504 1.080794
v -0.083969 2.117638 1.083079
v -0.078537 -1.553504 1.083616
v -0.289189 2.117638 0.969706
v -0.368275 2.038553 0.921888
v -0.364404 2.062991 0.924229
v -0.353171 2.085038 0.931021
v -0.335675 2.102535 0.941599
v -0.313628 2.113768 0.954930
v -0.289189 2.117638 0.995404
v -0.313628 2.113768 0.980628
v -0.335675 2.102535 0.967297
v -0.353171 2.085038 0.956719
v -0.364404 2.062991 0.949927
v -0.368275 2.038553 0.947586
v -0.289189 -1.553504 0.969706
v -0.313628 -1.549634 0.954930
v -0.335674 -1.538400 0.941599
v -0.353171 -1.520904 0.931021
v -0.364404 -1.498857 0.924229
v -0.368275 -1.474419 0.921888
v -0.289189 -1.553504 0.995404
v -0.368275 -1.474419 0.947586
v -0.364404 -1.498857 0.949927
v -0.353171 -1.520904 0.956719
v -0.335674 -1.538400 0.967297
v -0.313628 -1.549634 0.980628
v -0.064990 2.117638 1.057938
v -0.064990 2.117638 1.083636
v -0.064990 -1.553504 1.057938
v -0.064990 -1.553504 1.083636
vt 1.041109 1.152642
vt 1.023594 1.152613
vt 1.030582 -0.184599
vt 1.048097 -0.184570
vt 0.792403 1.201746
vt 0.792403 -0.201747
vt 0.809918 -0.201747
vt 0.809918 1.201746
vt 1.161249 0.341690
vt 1.161249 0.328474
vt 1.178764 0.328474
vt 1.178764 0.341690
vt 1.201747 -0.201747
vt 1.201746 1.201746
vt 1.178764 1.201746
vt 1.178764 -0.201747
vt 1.054411 0.060244
vt 1.071926 0.060244
vt 1.071926 0.073460
vt 1.054411 0.073460
vt 0.283837 1.201747
vt 0.283837 -0.201747
vt 0.306819 -0.201747
vt 0.306819 1.201747
vt 0.916756 -0.201747
vt 0.916756 1.201746
vt 1.178764 0.060244
vt 1.178764 0.073460
vt 0.916756 1.195678
vt 0.916756 -0.201747
vt 1.023594 -0.201747
vt 1.023594 1.195678
vt 1.054411 0.341690
vt 1.054411 0.328474
vt 1.150830 0.121679
vt 1.158106 0.129055
vt 1.140591 0.129055
vt 1.133315 0.121679
vt 1.164338 0.136725
vt 1.146823 0.136725
vt 1.169490 0.144643
vt 1.151975 0.144643
vt 1.173529 0.152761
vt 1.156014 0.152761
vt 1.176432 0.161031
vt 1.158917 0.161031
vt 0.582856 1.201746
vt 0.579165 1.201746
vt 0.579165 -0.201747
vt 0.582855 -0.201747
vt 1.114943 -0.176762
vt 1.132458 -0.176762
vt 1.099860 -0.146551
vt 1.082345 -0.146551
vt 1.100717 0.091468
vt 1.118232 0.091468
vt 1.160854 0.177097
vt 1.160840 0.171923
vt 1.178355 0.171923
vt 1.178369 0.177097
vt 0.570164 1.201746
vt 0.570164 -0.201747
vt 1.054807 -0.091133
vt 1.072322 -0.091133
vt 0.020492 1.201747
vt 0.020492 -0.201747
vt 1.072702 -0.098382
vt 1.072335 -0.096307
vt 1.054820 -0.096307
vt 1.055187 -0.098382
vt 0.598539 1.201746
vt 0.598539 -0.201747
vt 0.613571 1.201746
vt 0.613571 -0.201747
vt 0.628595 1.201746
vt 0.628595 -0.201747
vt 0.643520 1.201746
vt 0.643520 -0.201747
vt 0.672715 1.201746
vt 0.658256 1.201746
vt 0.658256 -0.201747
vt 0.672715 -0.201747
vt 0.007801 1.201747
vt 0.007801 -0.201747
vt 0.011491 -0.201747
vt 0.011491 1.201747
vt 1.074259 -0.107199
vt 1.056744 -0.107199
vt 1.077161 -0.115469
vt 1.059646 -0.115469
vt 1.081200 -0.123587
vt 1.063686 -0.123587
vt 1.086352 -0.131505
vt 1.068837 -0.131505
vt 1.092584 -0.139175
vt 1.075069 -0.139175
vt 1.177989 0.169848
vt 1.160474 0.169848
vt -0.007883 1.201747
vt -0.007883 -0.201747
vt -0.022915 1.201747
vt -0.022915 -0.201747
vt -0.037939 1.201747
vt -0.037938 -0.201747
vt -0.052864 1.201747
vt -0.052864 -0.201747
vt -0.067600 1.201747
vt -0.067600 -0.201747
vt -0.082059 1.201747
vt -0.082058 -0.201747
vt 1.090646 0.082069
vt 1.108161 0.082069
vt 1.081561 0.073460
vt 1.099076 0.073460
vt 1.036896 1.178147
vt 1.029724 1.170854
vt 1.047238 1.170883
vt 1.054411 1.178176
vt 1.025140 1.162055
vt 1.042655 1.162084
vt 1.032225 -0.193761
vt 1.049740 -0.193732
vt 1.036896 -0.201747
vt 1.054411 -0.201718
vt 1.158825 -0.201747
vt 1.151615 -0.194770
vt 1.134100 -0.194770
vt 1.141310 -0.201747
vt 1.142529 -0.186161
vt 1.125014 -0.186161
vt 0.792403 1.171511
vt 0.789474 1.180854
vt 0.780975 1.189283
vt 0.767737 1.195972
vt 0.751056 1.200266
vt 0.732565 1.201746
vt 0.732565 -0.201747
vt 0.751056 -0.200267
vt 0.767737 -0.195972
vt 0.780975 -0.189283
vt 0.789474 -0.180855
vt 0.792403 -0.171512
vt -0.141908 -0.201747
vt -0.141909 1.201747
vt -0.160400 1.200267
vt -0.177081 1.195972
vt -0.190319 1.189283
vt -0.198818 1.180855
vt -0.201747 1.171512
vt -0.201746 -0.171512
vt -0.198818 -0.180855
vt -0.190318 -0.189283
vt -0.177080 -0.195972
vt -0.160399 -0.200267
vt 0.306820 1.201746
vt 0.306819 -0.201747
vn -0.9226 -0.3857 0.0000
vn -0.9994 -0.0341 0.0000
vn -0.9994 0.0341 -0.0000
vn -0.9226 0.3857 0.0000
vn 1.0000 0.0000 0.0000
vn 0.0000 1.0000 0.0000
vn 0.0000 0.0000 -1.0000
vn 0.0000 -1.0000 0.0000
vn 0.0000 0.0000 1.0000
vn -1.0000 -0.0000 -0.0000
vn 0.1959 0.0000 -0.9806
vn -0.3329 0.0001 -0.9430
vn -0.3329 0.0000 -0.9430
vn 0.0892 0.4241 -0.9012
vn 0.0004 -1.0000 -0.0002
vn -0.0005 -1.0000 -0.0011
vn -0.0005 1.0000 -0.0011
vn 0.0003 1.0000 -0.0002
vn -0.4228 0.0001 -0.9062
vn 0.0015 0.0000 -1.0000
vn 0.0013 0.4241 -0.9056
vn 0.0013 -0.4241 -0.9056
vn -0.0015 -0.0000 1.0000
vn 0.2996 -0.0000 0.9541
vn 0.0980 -0.0984 -0.9903
vn 0.1122 -0.0000 -0.9937
vn 0.1971 0.0000 -0.9804
vn 0.1930 -0.0138 -0.9811
vn 0.1930 0.0138 -0.9811
vn 0.2702 0.0000 -0.9628
vn 0.2686 -0.0041 -0.9633
vn 0.2686 0.0041 -0.9633
vn 0.3432 0.0000 -0.9393
vn 0.3425 -0.0017 -0.9395
vn 0.3425 0.0017 -0.9395
vn 0.4857 0.0000 -0.8741
vn 0.4838 -0.0005 -0.8752
vn 0.4838 0.0005 -0.8752
vn 0.4148 0.0000 -0.9099
vn 0.4144 -0.0007 -0.9101
vn 0.4144 0.0007 -0.9101
vn 0.2056 -0.0000 0.9786
vn -0.0981 0.0815 0.9918
vn -0.0939 0.3010 0.9490
vn -0.0939 -0.3010 0.9490
vn -0.0985 -0.0132 0.9951
vn -0.1793 0.0000 0.9838
vn -0.2059 -0.0000 0.9786
vn -0.1930 -0.0040 0.9812
vn -0.1930 0.0040 0.9812
vn -0.2725 -0.0000 0.9622
vn -0.2686 -0.0017 0.9633
vn -0.2686 0.0017 0.9633
vn -0.3441 -0.0000 0.9389
vn -0.3425 -0.0008 0.9395
vn -0.3425 0.0008 0.9395
vn -0.4151 -0.0000 0.9098
vn -0.4144 -0.0005 0.9101
vn -0.4144 0.0005 0.9101
vn -0.4842 -0.0000 0.8750
vn -0.4838 -0.0022 0.8752
vn -0.4838 0.0022 0.8752
vn -0.1554 0.9879 -0.0005
vn -0.1566 0.9877 -0.0003
vn -0.1564 0.9877 0.0000
vn -0.4537 0.8911 -0.0001
vn -0.4540 0.8910 0.0000
vn -0.7071 0.7071 0.0000
vn -0.7076 0.7066 -0.0014
vn -0.7064 0.7078 -0.0006
vn -0.8904 0.4551 -0.0008
vn -0.8931 0.4499 -0.0077
vn -0.8884 0.4591 -0.0040
vn -0.8913 0.4534 -0.0009
vn -0.9865 0.1636 -0.0053
vn -0.9871 0.1563 0.0341
vn -0.9112 0.1443 -0.3857
vn -0.9884 0.1520 -0.0053
vn -0.9871 -0.1563 0.0341
vn -0.9865 -0.1637 -0.0053
vn -0.9884 -0.1520 -0.0053
vn -0.9112 -0.1443 -0.3857
vn -0.8931 -0.4498 -0.0078
vn -0.8904 -0.4551 -0.0008
vn -0.8913 -0.4534 -0.0009
vn -0.8884 -0.4591 -0.0040
vn -0.7076 -0.7066 -0.0013
vn -0.7069 -0.7073 -0.0002
vn -0.7071 -0.7071 0.0000
vn -0.7065 -0.7077 -0.0005
vn -0.4541 -0.8909 -0.0003
vn -0.4540 -0.8910 0.0000
vn -0.1564 -0.9877 0.0000
vn -0.1554 -0.9879 -0.0005
vn -0.1567 -0.9877 -0.0004
vn 0.5174 0.0000 -0.8557
vn 0.5174 -0.0022 -0.8557
vn 0.5174 0.0022 -0.8557
vn -0.5174 -0.0000 0.8557
vn -0.5193 -0.0000 0.8546
vn -0.0014 0.3010 0.9536
usemtl Metal
s off
f 56/1/1 46/2/2 62/3/3 64/4/4
f 1/5/5 2/6/5 4/7/5 3/8/5
f 3/9/6 6/10/6 5/11/6 1/12/6
f 9/13/7 10/14/7 11/15/7 12/16/7
f 8/17/8 7/18/8 4/19/8 2/20/8
f 5/21/9 8/22/9 2/23/9 1/24/9
f 3/8/5 4/7/5 10/25/5 9/26/5
f 4/19/8 7/18/8 11/27/8 10/28/8
f 7/29/10 6/30/10 12/31/10 11/32/10
f 6/10/6 3/9/6 9/33/6 12/34/6
f 20/35/6 19/36/6 22/37/6 21/38/6
f 19/36/6 18/39/6 23/40/6 22/37/6
f 18/39/6 17/41/6 24/42/6 23/40/6
f 17/41/6 16/43/6 25/44/6 24/42/6
f 16/43/6 15/45/6 26/46/6 25/44/6
f 35/47/11 28/48/12 36/49/13 27/50/14
f 63/51/15 57/52/16 29/53/8 37/54/8
f 21/38/6 45/55/17 51/56/18 20/35/6
f 69/57/6 28/58/6 13/59/6 70/60/6
f 69/61/19 71/62/20 36/49/21 28/48/22
f 72/63/8 71/64/8 7/18/8 8/17/8
f 70/65/23 72/66/24 8/22/23 5/21/23
f 27/67/8 36/68/8 44/69/8 14/70/8
f 26/71/11 35/47/25 27/50/13 34/72/26
f 25/73/27 26/71/28 34/72/29 33/74/27
f 24/75/30 25/73/31 33/74/32 32/76/30
f 23/77/33 24/75/34 32/76/35 31/78/33
f 21/79/36 22/80/37 30/81/38 29/82/36
f 22/80/39 23/77/40 31/78/41 30/81/39
f 43/83/42 14/84/43 44/85/44 13/86/45
f 34/87/8 27/67/8 14/70/8 42/88/8
f 33/89/8 34/87/8 42/88/8 41/90/8
f 32/91/8 33/89/8 41/90/8 40/92/8
f 31/93/8 32/91/8 40/92/8 39/94/8
f 29/53/8 30/95/8 38/96/8 37/54/8
f 30/95/8 31/93/8 39/94/8 38/96/8
f 15/45/6 43/97/6 35/98/6 26/46/6
f 15/99/46 42/100/43 14/84/47 43/83/45
f 15/99/48 16/101/49 41/102/50 42/100/48
f 16/101/51 17/103/52 40/104/53 41/102/51
f 17/103/54 18/105/55 39/106/56 40/104/54
f 18/105/57 19/107/58 38/108/59 39/106/57
f 19/107/60 20/109/61 37/110/62 38/108/60
f 45/55/63 50/111/64 52/112/65 51/56/64
f 50/111/66 49/113/67 53/114/67 52/112/67
f 49/115/68 48/116/69 54/117/70 53/118/68
f 48/116/71 47/119/72 55/120/73 54/117/74
f 47/119/75 46/2/76 56/1/77 55/120/78
f 62/3/79 61/121/80 65/122/81 64/4/82
f 61/121/83 60/123/84 66/124/85 65/122/86
f 60/125/87 59/126/88 67/127/89 66/128/90
f 59/126/91 58/129/92 68/130/92 67/127/92
f 58/129/93 57/52/94 63/51/95 68/130/93
f 46/131/96 47/132/96 48/133/96 49/134/96 50/135/96 45/136/96 21/79/97 29/82/98 57/137/96 58/138/96 59/139/96 60/140/96 61/141/96 62/142/96
f 63/143/99 37/110/100 20/109/100 51/144/99 52/145/99 53/146/99 54/147/99 55/148/99 56/149/99 64/150/99 65/151/99 66/152/99 67/153/99 68/154/99
f 43/97/6 13/59/6 28/58/6 35/98/6
f 13/86/24 44/85/24 72/66/101 70/65/23
f 44/69/8 36/68/8 71/64/8 72/63/8
f 6/155/20 7/156/20 71/62/20 69/61/22
f 6/10/6 69/57/6 70/60/6 5/11/6
